<svg xmlns="http://www.w3.org/2000/svg" viewBox="0 0 102 79.2"><title>athletik</title><g id="Ebene_2" data-name="Ebene 2"><g id="Ebene_1-2" data-name="Ebene 1"><path d="M46.25,61.8c-11.49-3.18-22,1.8-31.71,10.06A71.33,71.33,0,0,1,4.27,78.92c-1,.62-2.83,0-4.27,0,.31-1.3.18-3.07,1-3.85C15.78,60.92,30.6,46.81,45.6,32.89c3.7-3.45,7.73-2.83,10.62,1.51,4.33,6.49,8.43,13.16,12.27,20,2.48,4.38.5,7.31-4.69,7.42S53.16,61.8,46.25,61.8ZM41,53.65c.12.39.25.78.38,1.16L54.1,53.54l-4.62-5.69Z"/><path d="M84.3,33.17c4.88-2.11,9.24-4.12,13.71-5.83,1.14-.44,2.65.05,4,.11-.61,1.17-.94,2.76-1.9,3.42-5.07,3.46-10.32,6.67-15.48,10-2.78,1.79-5,1.37-6.65-1.54C75,34.15,71.79,29.09,69,23.79c-2.16-4.14-.77-8.31,2.73-9.8s6.89.37,8.5,5.26C81.71,23.63,82.85,28.12,84.3,33.17Z"/><path d="M62.48,16.45c-3-6.67-7.63-4.83-12.66-2.57-3.91,1.75-8.11,2.83-12.18,4.21-.32-.62-.64-1.23-1-1.85a18.57,18.57,0,0,1,3.11-2.92c4.58-2.66,9.39-5,13.86-7.78,3.56-2.24,6.68-2.15,10.07.11,2.34,1.55,4.84,2.85,7.61,4.47Z"/><path d="M88,15.23a7.34,7.34,0,0,1-6.87-7.7A7.42,7.42,0,0,1,88.25,0c4.06,0,7.32,3.63,7.15,8A7.38,7.38,0,0,1,88,15.23Z"/></g></g></svg>