<svg xmlns="http://www.w3.org/2000/svg" viewBox="0 0 120.96 128.58"><title>aviron</title><g id="Ebene_2" data-name="Ebene 2"><g id="Ebene_1-2" data-name="Ebene 1"><path d="M113.23,63l7.6.41.13,1.25-9.14,1c1.27,2.2,1.92,4.16,3.23,5.43,2.12,2,2,3.32-.26,5.15a9.37,9.37,0,0,0-3.35,4.64c-3.38,15.23-9.08,29.24-20.64,40.19-3,2.81-6.51,5-9.78,7.45L79.4,127.3c.89-1.32,1.49-3,2.71-3.9,15.42-10.68,22.37-26.26,25.74-44,.09-.43-.17-.92-.45-2.21l-47,7.67c-.32-4.42-.64-8.81-1-14,1.84,0,3.59,0,5.34,0,13.31,0,26.63-.11,40,.09,4.22.06,5.31-1.52,4.08-5.78H89.92q-22.47,0-44.94,0a8.1,8.1,0,0,0-6.4,2.29c-2.33,2.16-6.71,2.12-10.09,3-.69,3.11-1,6.31-2.22,9.13-.51,1.16-3.32,2.47-4.43,2a209,209,0,0,1-19.12-8.5C1.31,72.47-.22,69.94,0,68.56a6.58,6.58,0,0,1,3.8-4.36,33.07,33.07,0,0,1,9.35-.93q45.2-.09,90.39,0h5.82a86.32,86.32,0,0,0-8.1-35.52C96.41,16.92,88.12,8.88,78.52,1.81L81.2,0C104.26,14.24,111,37.18,113.23,63Z"/><path d="M54.8,48.41c-.06,6-4.68,10.69-10.28,10.5-5.36-.18-9.72-5-9.69-10.62,0-5.83,4.8-10.68,10.34-10.53C50.51,37.9,54.86,42.71,54.8,48.41Z"/></g></g></svg>