<svg xmlns="http://www.w3.org/2000/svg" viewBox="0 0 121.17 61.43"><title>aviron_1</title><g id="Ebene_2" data-name="Ebene 2"><g id="Ebene_1-2" data-name="Ebene 1"><path d="M0,42.91H26.82l.48-1L3.77,24c2.83-1.07,4.4-1.74,6-2.26,9.48-3.05,18.93-6.18,28.48-9a9.53,9.53,0,0,1,6.36.55c1,.49,1.78,3.75,1.13,4.66a9.08,9.08,0,0,1-5.37,3.46C30.61,23,20.77,24.12,9.5,25.58l18.94,14c1.13-4.14,2.13-7.63,3-11.15s2.84-4.27,5.93-2.73C42.6,28.31,47.79,31,53,33.52c3.64,1.8,6.88,3.81,5.23,9H78.06L53.76,24.06c2.59-1,4-1.72,5.46-2.19,9.49-3,19-6.15,28.51-8.92a11.33,11.33,0,0,1,6.86.36c.92.36,1.77,3.9,1.1,4.68a10.57,10.57,0,0,1-5.86,3.49C80.2,23,70.51,24.12,59.48,25.56L78.3,39.63c1.18-4.19,2.27-7.66,3.14-11.19s2.85-4.23,5.91-2.7c5.79,2.9,11.78,5.5,17.27,8.91,2.26,1.41,3.44,4.58,5.88,8h10.67c-1.75,6.79-7.52,10.12-13.64,8.2s-6-1.9-12.41,1.15c1.95,1.48,3.74,2.82,5.51,4.19s3.36,2.63,5,4l-.88,1.25a15.25,15.25,0,0,1-2.71-1.26c-3.25-2.33-6.5-4.65-9.61-7.15-3.63-2.91-7-6-12-2.29a5.34,5.34,0,0,1-4.77.47c-4.7-2.8-9-2.25-13.69,0a5,5,0,0,1-4.31-.42c-4.38-3.08-8.2-1.69-12.3,1.23l10.33,8.23L55,61.43a12,12,0,0,1-2.71-1.08C49,58,45.76,55.73,42.67,53.2c-3.74-3.07-6.8-5.87-12.48-2.58-2.61,1.51-7.34-.65-13-1.38C9.07,53.33,2.76,51.71,0,42.91ZM86.33,34c-1.2,3.22-2.13,5.72-3.19,8.55H97ZM47.27,42.5l-11-8.36c-1.11,3.1-2,5.52-3,8.36Z"/><path d="M87.49,6.66c-2.11,1.52-4.31,4.31-6.31,4.18s-4.59-3.16-5-5.29A4.56,4.56,0,0,1,81.49.09c2.16.33,4,2.77,6,4.26C87.48,5.12,87.49,5.89,87.49,6.66Z"/><path d="M38.86,5.61c-3.31,2.59-5.12,5.12-7.27,5.44-3.35.5-5.45-2.16-5.46-5.55s2.24-6,5.55-5.43C33.82.43,35.59,3,38.86,5.61Z"/></g></g></svg>