<svg xmlns="http://www.w3.org/2000/svg" viewBox="0 0 64.3 121.77"><title>badminton</title><g id="Ebene_2" data-name="Ebene 2"><g id="Ebene_1-2" data-name="Ebene 1"><path d="M54.17,88.21c-1.39,1.49-2.34,3.33-3.8,3.94C38.6,97,29.58,106.06,19,112.75c-4.08,2.58-8.06,5.35-12.28,7.66-1.76,1-4.05.93-6.1,1.36.87-1.87,1.3-4.22,2.7-5.53,5.35-5,11.18-9.47,16.47-14.53A11.49,11.49,0,0,0,22.94,95c.66-6.44.33-13,1.12-19.41.33-2.63,2-6.22,4.05-7.2s6,.08,8,1.63A200.63,200.63,0,0,1,51.31,83.74C52.44,84.81,53.05,86.42,54.17,88.21Zm-12.69-.3L36,84.4c-.57,3-1,5.22-1.66,8.72Z"/><path d="M7.43,55c2.79-3.32,5.07-6.13,7.46-8.86s5.5-3.39,8.23-.69,2.46,6-.26,8.4C18,58.1,12.9,62.13,7.65,65.91,4.47,68.2,2.4,66,2.09,63c-1-10.6-4.51-21.27.75-31.78C3.93,29,4.15,26.4,5,24.06c1.1-3.19,1.64-5.76-1.1-8.91C.78,11.62,3.91,3.79,8.45,2.23c3.31-1.15,5.86,0,7.44,3.17a9.5,9.5,0,0,1-5.27,13.35A5.06,5.06,0,0,0,8,21.11C2.83,33.78,2.69,41.89,7.43,55ZM15,8.13c-1-1-2.5-3.37-4.53-4-2.51-.82-5.82,4-5.7,7.51.11,3.24,2,5.12,5,4.94C13.9,16.31,14.54,13,15,8.13Z"/><path d="M64.3,26.79a35.71,35.71,0,0,1-4,3.12C52.43,34.57,44.46,39.14,36,44l-5.42-6c10.15-6.45,21.31-10,32.75-12.72Z"/><path d="M27.89,32.44A6.57,6.57,0,0,1,21,39.26c-3.62-.15-6.25-3.08-6.23-6.95a6.78,6.78,0,0,1,6.36-6.9A6.78,6.78,0,0,1,27.89,32.44Z"/><path d="M37.28,4.33,45.7,0c.42,2.35.77,4.36,1.25,7.1L37.52,5.83Z"/></g></g></svg>