<svg xmlns="http://www.w3.org/2000/svg" viewBox="0 0 86.91 95.92"><title>basketballpierre</title><g id="Ebene_2" data-name="Ebene 2"><g id="Ebene_1-2" data-name="Ebene 1"><path d="M54.05,72.23c-1.75,5.08.15,8.12,5.1,10.35a155.43,155.43,0,0,1,16.09,9c1.17.71,1.74,2.41,2.58,3.65-1.44.23-3.1,1-4.31.6-8.1-3-16.21-6-24.06-9.52a8.6,8.6,0,0,1-4.19-5.85,168.87,168.87,0,0,1-1.39-22.36,8.92,8.92,0,0,1,3.89-6.52c3-1.68,5.59.54,7.16,3.5,2.16,4.12,4.67,8.08,6.47,12.35,1.5,3.53,3.85,4.93,7.45,5.43C73.93,73.54,79,74.54,84,75.7c1.11.25,2,1.66,2.91,2.54-1.1.52-2.21,1.5-3.29,1.48-7.31-.13-14.71.08-21.88-1C59,78.23,56.71,74.57,54.05,72.23Z"/><path d="M67.64,14.91C60.91,13.1,58.27,8.81,60.89,4c2.17-4,7.67-4.9,10.39-1.26,2.2,2.93,4.55,6.2,2.42,10.37a14.79,14.79,0,0,0-1.46,4.22c-1.61,9.67-8.55,13.9-17.11,16.9-.39-2.8-.76-5.5-1.19-8.64C60,24.09,66.82,23.53,67.64,14.91Z"/><path d="M49.05,33.58c-5.11,7-6.75,15.38-14.32,19.56a111.1,111.1,0,0,1-10.17,5.25c-2.2.93-4.71,1.14-7.08,1.68C19,58.18,20.24,56,22,54.48a35.83,35.83,0,0,1,7-4.74,12.26,12.26,0,0,0,6.37-8.32,38.22,38.22,0,0,1,3.85-10.18,6.53,6.53,0,0,1,5.57-2.47C46.42,29.12,47.53,31.75,49.05,33.58Z"/><path d="M21.05,7.72H2.8l3.66,13-1.6.48C3.18,15.36,1.32,9.58,0,3.67-.19,2.76,2.11.3,3.35.23A121.75,121.75,0,0,1,21,.42c1.11.1,3,3.32,2.75,4.71-1.15,5.43-3,10.69-4.65,16l-1.46-.39C18.78,16.32,20,11.87,21.05,7.72Zm.81-4C17.5-.64,5.73-.5,2.1,3.89,7.66,7.57,17.08,7.46,21.86,3.67Z"/><path d="M53.32,18.07a6.08,6.08,0,0,1-6.44,6.06c-3.82-.26-5.52-2.77-5.75-6.24a6.59,6.59,0,0,1,6.18-6.53C50.49,11.42,53.42,14.69,53.32,18.07Z"/></g></g></svg>