<svg xmlns="http://www.w3.org/2000/svg" viewBox="0 0 124.69 54.81"><title>beachvolley</title><g id="Ebene_2" data-name="Ebene 2"><g id="Ebene_1-2" data-name="Ebene 1"><path d="M60.29,30.44c.09,6.53-4.29,9.5-9,7.54C39.59,33.2,27.88,28.57,21.11,16.62c-2.59-4.57-6.48-8.4-9.57-12.72-.69-1-.47-2.58-.67-3.9,1.42.3,3.29.12,4.2,1C20.9,6.4,26.35,12.25,32.3,17.55a25.35,25.35,0,0,0,8.77,4.83c4.55,1.51,9.5,1.85,14,3.52C57.42,26.78,59.15,29.4,60.29,30.44Z"/><path d="M109.19,54.81c-8-.88-16.11-1.65-24.14-2.74-1.18-.16-2.5-1.6-3.19-2.78q-4.6-8-8.85-16.15c-1.85-3.6-.77-7.36,2.35-8.35,3.73-1.19,6.08.56,7.25,4.09,1.09,3.3,2.18,6.61,3.17,10,2.31,7.83,2.28,7.84,10.37,8.78-2.33-1.92-5.43-3.5-7-6-1.76-2.82-2.14-6.51-2.71-8.44,7.38,6.22,15.59,13.12,23.8,20C109.88,53.71,109.53,54.26,109.19,54.81Z"/><path d="M45.93,39.28c-14.34.82-28.68,1.68-43,2.37C2,41.7,1,40.44,0,39.79c.88-.78,1.68-2.08,2.67-2.26C12.32,35.8,22,33.45,31.7,33c4.75-.22,9.68,3.21,14.53,5Z"/><path d="M92.88,17.48a6.54,6.54,0,0,1,6.33,6.91A6.8,6.8,0,0,1,92.46,31C89.07,31,86,27.55,86.13,24A6.51,6.51,0,0,1,92.88,17.48Z"/><path d="M118.37,43.81a6.44,6.44,0,0,1-6.66-6.55c-.11-3.94,2.5-6.91,6.17-7a6.73,6.73,0,0,1,6.8,6.52A6.85,6.85,0,0,1,118.37,43.81Z"/></g></g></svg>