<svg xmlns="http://www.w3.org/2000/svg" viewBox="0 0 117.28 136.24"><title>bmx</title><g id="Ebene_2" data-name="Ebene 2"><g id="Ebene_1-2" data-name="Ebene 1"><path d="M42,34.49c7.12,8.71,3,23,15.14,30.13-.42-2.57-.38-4.07-.91-5.34-2.78-6.77-.26-11.12,5.68-14.74C67,41.43,71.46,37.37,76.37,34c1.14-.8,2.88-.75,4.35-1.09-.46,1.41-.52,3.2-1.45,4.17C75,41.49,70.72,45.9,66.11,50c-2.49,2.21-3.27,4-1.62,7.14,2.76,5.3,5,10.87,7.46,16.33,1.6,3.54,1.65,7-1.86,9.3-3.34,2.24-6.26.89-8.88-1.74-4.82-4.83-9.76-9.54-14.58-14.37C43.3,63.29,39.53,38.65,42,34.49Z"/><path d="M19,45.28C4.43,47.43-2.39,35.89.75,25.47a13.93,13.93,0,0,1,12.4-10,13.94,13.94,0,0,1,14.12,8.22c2.69,5.63,2,12.85-2.55,17.15C22.14,43.28,22,45.09,23.45,48c2.2,4.44,4,9.1,6.69,12.67,2.28,1.16,4.79,2,6.8,3.53,8.3,6.25,14.34,14.08,16.67,24.5.76,3.4,1.37,6.73-2.8,7.63S45.26,94,45.19,90.54C45,82,42.25,74.65,35.67,69a72.55,72.55,0,0,0-6.87-4.65l-1,1.17Zm1.45-5.08c5.84-4.65,7-11.19,3.15-16.76A11,11,0,0,0,8.65,20.1,12.37,12.37,0,0,0,4.19,35.84c2.59,5.28,8,7.59,12.87,5.53-.64-4.16-4.47-7.67-3.5-12.17L15,28.74Z"/><path d="M116.73,79.29c-3.81,0-7.63.2-11.42-.06-3.2-.22-4.51.93-5.6,4C92.23,104.39,79.26,121,58.19,129.89c-7.52,3.17-15.88,4.32-23.88,6.35-1.84-3.87-1.47-5.27,2.06-5.41,29.62-1.19,52.55-25,60.32-51.26,1.14-3.87,2.73-5,6.52-4.7a87.58,87.58,0,0,0,11,0C117.43,74.82,117.84,76.31,116.73,79.29Z"/><path d="M81.32,16c0,8.89-6.64,15.81-15.08,15.77s-15.1-7-15-15.84S57.94,0,66.29,0,81.34,7.22,81.32,16Zm-27.16-.12c0,6.87,5.37,12.75,11.85,12.84,6.83.1,12.34-5.66,12.29-12.86S73,3.3,66.26,3.33A12.24,12.24,0,0,0,54.16,15.84Z"/><path d="M38.63,83.55l-5,6.32,5.66,1.51c.27.44.55.88.82,1.33-2,1.53-3.89,4-6.09,4.34a9.39,9.39,0,0,1-6.92-2.57c-2.73-2.71-2.47-6.3-.05-10.06,4.75,6.17,7.56,1.32,10.65-2.1Z"/></g></g></svg>