<svg xmlns="http://www.w3.org/2000/svg" viewBox="0 0 99.63 62.08"><title>box</title><g id="Ebene_2" data-name="Ebene 2"><g id="Ebene_1-2" data-name="Ebene 1"><path d="M12.48,44.31c2.17-4.06,4.05-8.33,6.64-12.11,1.62-2.37,4.84-6,6.42-5.54a13,13,0,0,1,7.69,6.5c.69,1.54-2.23,6.5-4.35,7.12-6,1.78-8.42,6.63-11.75,10.82-2.37,3-4.42,6.32-7.11,9-1.3,1.3-4,2.34-5.59,1.88A6.33,6.33,0,0,1,.69,57.44C.17,47-.12,36.49.05,26c.07-4.48,4.11-7.16,8.36-6.56a7.61,7.61,0,0,1,6.27,9.23c-1,5-2.67,9.85-4,14.77Z"/><path d="M39.52,35.12l.77-11.34c3.5,0,7.06-.12,10.61,0,13.06.52,26,3.05,39.2,1,5.77-.9,9.86,1.91,9.51,6.09-.22,2.74-1.73,6.49-3.85,7.69-3.51,2-8.3,1.62-10.67-2.26-1.87-3.08-3.9-3.3-6.85-3.09Q63.59,34.32,48.91,35.1C45.81,35.27,42.7,35.12,39.52,35.12Z"/><path d="M39,11.07c-.1,6.29-4.67,10.89-10.66,10.72-5.5-.16-10.17-5.14-10.22-10.87A10.75,10.75,0,0,1,28.68,0C34.65,0,39.05,4.75,39,11.07Z"/></g></g></svg>