<svg xmlns="http://www.w3.org/2000/svg" viewBox="0 0 99.78 82.14"><title>cyclismpist</title><g id="Ebene_2" data-name="Ebene 2"><g id="Ebene_1-2" data-name="Ebene 1"><path d="M0,61.4C0,50,8.67,40.81,19.33,40.8c10.92,0,19.91,9.4,19.83,20.76S30,82.34,19.19,82.13,0,72.74,0,61.4Z"/><path d="M87,30.22l3.19-5.79c1.69,6.23-.94,10-6.31,10-4.14,0-8.27,0-13.25,0,1,2.76,1.84,4.85,2.67,7.07,2.87-.23,5.51-.78,8.08-.57,9.65.79,16.53,7.63,18.12,17.67,1.44,9.1-3.72,18.56-12,22a19.17,19.17,0,0,1-22.78-6.26c-5.63-7.54-5.55-18.88.28-26,1.64-2,5.06-3.95,4.94-5.74-.26-4.14-1.84-8.33-3.55-12.2-2-4.55-4.73-8.77-7.07-13.17C57.68,14,56.66,10.54,60.81,8.7,64.72,7,66.5,9.9,67.66,13.15q.84,2.36,1.7,4.69C73.66,29.59,73.66,29.59,87,30.22ZM81.77,62.29l-2.39.91L72.23,46.75a17,17,0,0,0-7.08,22.07c3.8,8.26,12.69,12.09,20.71,8.93a17.5,17.5,0,0,0,9.89-22.24c-3.15-8.85-11.12-13-20.51-10.33Q78.51,53.73,81.77,62.29Z"/><path d="M33.21,20c0-5.31,4.68-8.31,9.25-5.55C48.41,18,54.08,22.1,59.85,26c2.91,2,2.69,4.21.51,6.66-3.52,4-7.17,7.88-10.37,12.11a9.82,9.82,0,0,0-1.85,6.12c.53,7,1.63,13.85,2.31,20.79.09,1-1,2-1.51,3-.72-.77-1.85-1.43-2.09-2.33-4.57-17-9-34-13.5-51A7.38,7.38,0,0,1,33.21,20ZM46.64,40.36,53,31.07,45,28.3C45.55,32.42,46,35.61,46.64,40.36Z"/><path d="M62.53,1.53C66.69,1,70.85-.07,75,0c5.25.1,8.53,4.38,7,9.13-.63,2-2.81,4.52-4.72,5s-5.73-.93-6.25-2.38C69.48,7.24,66.76,4.35,62,3,62.2,2.48,62.37,2,62.53,1.53Z"/></g></g></svg>