<svg xmlns="http://www.w3.org/2000/svg" viewBox="0 0 97.59 90.33"><title>cyclismroute</title><g id="Ebene_2" data-name="Ebene 2"><g id="Ebene_1-2" data-name="Ebene 1"><path d="M73.51,45.53l4.12-4.22-7.72-1.83c-2.17,7.15.25,10.42,6.46,9.78,10.44-1.08,20.18,7.6,21.15,18.84s-7,21.29-17.6,22.15A19.55,19.55,0,0,1,58.53,72c-.68-8.77,2.82-15.48,9.23-19.95-.67-4.52-1.05-8.43-1.94-12.23-.34-1.48-1.6-3.49-2.87-3.89C51.36,32.3,52.22,21.52,49.73,12.85c-.36-1.24,2.28-4.67,3.64-4.73,1.82-.08,4.92,1.8,5.39,3.43,1.17,4.1.94,8.57,1.75,12.79a8.83,8.83,0,0,0,2.91,5.25c4.33,3.05,7.49,7.92,13.79,8.14,3,.1,4.44,3.27,3.11,6.12S76.36,47.36,73.51,45.53Zm-3.74,9.53C61.2,60.78,58.92,71,64,79.32a16.31,16.31,0,0,0,21.8,5.94c8-4.5,11.05-15.07,6.77-23.46C88.61,54,80.38,50.62,73,54l6.76,16.56-2.08,1C74,66.78,73,60.51,69.77,55.06Z"/><path d="M48.64,80.85A22.39,22.39,0,0,1,46.3,77c-5.39-15.17-10.68-30.36-16-45.55-1.25-3.55-1.44-6.93,2.13-9.31s6.26-.61,8.93,1.7c4.65,4,9.27,8.07,14,12,3,2.43,3.39,5.22.62,7.56-10.62,9-9.51,19.93-6,31.5.51,1.7.34,3.61.48,5.42ZM44.89,48.34c1.8-2.94,3-4.93,4.4-7.22l-6.66-3.73C43.46,41.4,44.06,44.32,44.89,48.34Z"/><path d="M19.43,90.3C8.61,90.21,0,81.18,0,69.84S9.09,49.11,20,49.21c10.59.1,19.32,9.4,19.39,20.66C39.43,81.39,30.65,90.39,19.43,90.3Zm.32-3.06c9.14,0,16.7-8.08,16.62-17.7-.08-9.15-8-17.23-16.76-17.16S3.14,60.36,3,69.69C2.89,79.25,10.52,87.26,19.75,87.24Z"/><path d="M68.48,0c4,.58,6.21,2.86,6.15,6.67S72.4,13,68.45,13s-5.93-2.64-5.94-6.49S64.87.56,68.48,0Z"/></g></g></svg>