<svg xmlns="http://www.w3.org/2000/svg" viewBox="0 0 83.86 88.38"><title>equitation</title><g id="Ebene_2" data-name="Ebene 2"><g id="Ebene_1-2" data-name="Ebene 1"><path d="M74.36,5.76c3.17,8.92,6.4,17.82,9.41,26.79.36,1.08-.46,2.56-.73,3.85-1.26-.35-3-.3-3.7-1.12-2.81-3.06-5.3-6.4-8.09-9.85-7.18,5.8-9.14,12-10,19.48,4.11-.74,7.76-1.56,11.45-2,4.16-.52,5.65,1.1,4.62,5.2-1.14,4.5-1.73,9.62-4.34,13.14s-7.36,5.22-11.53,7.18c0-4.38.72-7.36,5.48-8.33,1.71-.35,2.7-4.24,4-6.51l-1.27-1.2c-1.57.65-3.12,1.34-4.69,2-10.17,4.06-20,9.28-30.58,11.82C22.2,69.09,10.16,67.09,0,57l21.66-10.8c-2.54-4.23-8.92-6.29-7-12.3.78-2.43,3-4.4,5.12-7.39L30,41.76c9-3.06,10.21-3.87,11.71-8.24-3.78-.58-7.47-1.11-11.15-1.73-4.69-.8-5.74-2.63-3.69-6.92,1.65-3.44,3.6-6.75,5.51-10.06,1.54-2.67,3.87-4,6.64-2.1s2.84,4.67.84,7.38c-1.46,2-3,3.91-4.83,6.33l7.14,2.81c6-5,11.21-9.47,16.55-13.77a7.81,7.81,0,0,1,3.71-1.38c5.44-.77,11.07-1.17,10.69-9.63Z"/><path d="M54,8.16H47.29c.3,2.28.56,4.23.82,6.19l-.89.36L44.67,8.34,41.36,7.6c-.45-3.47,0-6.42,3.64-7.33C51.1-1.27,51.6,4.14,54,8.16Z"/><path d="M77.14,74.93c-2,1.27-3.4,2.85-4.47,2.65S69.92,75.4,70,74.31a4.22,4.22,0,0,1,3.12-2.83C74.25,71.49,75.36,73.3,77.14,74.93Z"/><path d="M77.13,85.1c-1.83,1.55-3,3.35-4.11,3.28a4.33,4.33,0,0,1-3-3c-.07-1.05,1.7-3,2.83-3.13S75.21,83.75,77.13,85.1Z"/></g></g></svg>