<svg xmlns="http://www.w3.org/2000/svg" viewBox="0 0 132.98 86.92"><title>escrime</title><g id="Ebene_2" data-name="Ebene 2"><g id="Ebene_1-2" data-name="Ebene 1"><path d="M57.36,83.74c1.37-10.5,2.45-20.09,4-29.61a7.61,7.61,0,0,1,3.84-5c6.41-2.72,13.07-4.87,19.67-7.15,4.2-1.44,7.69-.44,10.83,2.86,11.71,12.29,23.6,24.42,35.32,36.72,1.07,1.13,1.32,3,1.95,4.57-1.69-.42-3.7-.38-5-1.32-12.08-8.58-24.11-17.24-36-26.1-2.89-2.16-5.57-3.16-9.15-2.45-4.54.91-10.46-.08-13.4,2.49s-2.93,8.48-4.18,13c-1.12,4-2.06,8.06-3.35,12-.39,1.22-1.64,2.16-2.5,3.23C58.61,85.68,57.82,84.45,57.36,83.74Z"/><path d="M85.92,24c-.11-5.29,4-8.41,7.42-6.14C105.07,25.61,116.5,33.82,128,42c.7.49.68,2,1,3-1.15.09-2.63.68-3.41.18C114.19,37.85,102,32.46,89.32,27.84,87.67,27.23,86.65,24.86,85.92,24Z"/><path d="M0,24.21l74.78-3.89a17.6,17.6,0,0,1,.34,2.35c.07,1.94,0,3.89,0,5.44Z"/><path d="M78,14.28c-4.71-.36-5.27-3.59-5.27-7S73.33.79,78,.17Z"/><path d="M80.53,13.84V0l4.54.34C87,10.13,86.28,12.27,80.53,13.84Z"/></g></g></svg>