<svg xmlns="http://www.w3.org/2000/svg" viewBox="0 0 91.12 100.01"><title>foot</title><g id="Ebene_2" data-name="Ebene 2"><g id="Ebene_1-2" data-name="Ebene 1"><path d="M47.32,58.75c-3,4.44-6.09,8.75-9,13.18-1.81,2.81-4.06,3.58-7.23,2.65-9.26-2.71-18.58-5.2-27.79-8C2,66.13,1.1,64.29,0,63.11c1.52-.55,3.12-1.72,4.55-1.54,7.75,1,15.5,2.11,23.17,3.59,3.09.59,4.08-.58,5-3.1,1.85-5,3.8-10,6-14.78C41.87,40.45,46.92,40,52,45.35c13.25,14.18,20.4,31.77,27.87,49.18.43,1-.38,2.55-.61,3.84-1.14-.71-2.71-1.15-3.35-2.17C72.11,90.12,68.18,84.1,65,77.7,61.06,69.65,54.71,64.1,47.32,58.75Z"/><path d="M45.82,13.93c1.29,1.49,4,3.26,4.15,5.18a9,9,0,0,1-3.37,6.71c-2.12,1.49-5.33,1.66-8.11,1.95a47.5,47.5,0,0,0-20.18,6.4,66.46,66.46,0,0,1-8.88,4.47c-.95.4-2.32-.18-3.5-.31.52-1.09.75-2.54,1.6-3.21C18,26.84,29.16,19.8,41.72,15.11,42.65,14.77,43.62,14.56,45.82,13.93Z"/><path d="M59.19,21.19c.92.39,1.49.46,1.77.78,7.1,8.17,16.8,11.42,26.71,14.38,1.35.4,2.31,2.11,3.45,3.22-1.48.24-3.07,1-4.4.65-8.33-2-16.6-4.27-24.88-6.5-3.52-.95-4.71-3-3.3-6.66C59.18,25.43,59,23.46,59.19,21.19Z"/><path d="M57.18,15.61A7.82,7.82,0,0,1,57.32,0c4,0,7.36,3.66,7.33,7.88S61.11,15.69,57.18,15.61Z"/><path d="M59.42,84.82a7.34,7.34,0,0,1,7.45,7.61A7.21,7.21,0,0,1,60,100a7.44,7.44,0,0,1-7.81-7.27A7.64,7.64,0,0,1,59.42,84.82Z"/></g></g></svg>