<svg xmlns="http://www.w3.org/2000/svg" viewBox="0 0 105.52 72.89"><title>golf</title><g id="Ebene_2" data-name="Ebene 2"><g id="Ebene_1-2" data-name="Ebene 1"><path d="M89.64,49.31l4-21.25,1.58.15c-1.69-3.37-3.38-6.74-5.29-10.52-.48.8-.9,1.18-.87,1.51C90.33,35,86,49.89,82.42,64.93c-1.53,6.36-5.7,9.15-10.61,7.48-5.22-1.78-7.21-6.81-4.76-12.7,2.18-5.21,4.19-10.58,7.08-15.4C81.38,32.22,80,18.75,81.67,4.62L5.28,49.68C5.92,54.54,9.68,59,6.73,64.2,2.19,63,.71,59.78.15,56c-.63-4.15.72-7.33,4.6-9.6Q41.16,25.13,77.44,3.6c8.87-5.22,9-5.28,14.79,3.28,4.31,6.32,8.6,12.68,12.37,19.33,1.07,1.89,1.31,5.62.14,7.15-4.38,5.76-9.51,11-14.36,16.38Z"/><path d="M47.06,41.43C47,34.87,51.79,29.65,58,29.62c5.86,0,10.93,5.11,11.09,11.24.16,6.43-4.7,11.88-10.77,12.08S47.15,48,47.06,41.43Z"/></g></g></svg>