<svg xmlns="http://www.w3.org/2000/svg" viewBox="0 0 91.42 111.82"><title>handball</title><g id="Ebene_2" data-name="Ebene 2"><g id="Ebene_1-2" data-name="Ebene 1"><path d="M45.31,58.69c2.59,2.13,5.19,3.36,6.39,5.4,5.11,8.73,9.94,17.64,14.61,26.62,2.15,4.14.57,6.46-4.2,7a20.55,20.55,0,0,1-3.48.31c-17.93-.91-34.3,4.59-50.18,12.13a16.23,16.23,0,0,1-4.69,1.62c-1.2.16-2.5-.5-3.76-.8.53-1.26.7-3,1.64-3.7,3.4-2.36,6.85-4.88,10.65-6.4,13-5.18,20.79-14.32,23.21-28.19A24,24,0,0,1,39.08,64C40.4,62,42.82,60.75,45.31,58.69ZM40,92.6,55.32,90c-3-4-5.36-7.18-8.15-10.91Z"/><path d="M20.63,13.44c.82,5.27,1.4,10.23,2.5,15.06a5,5,0,0,0,3.47,2.92c3.43.48,7,.16,10.45.44,4.45.35,6.61,2.93,6,6.78S39.55,44,35.16,43c-2.58-.6-5.15-1.3-7.7-2-12.33-3.48-9.74-1.23-11.17-13.83-.77-6.74-1.76-13.51-1.76-20.27,0-2.34,2.2-5.78,4.29-6.7,1.66-.73,5.94,1,6.77,2.75,1,2.09-.12,5.44-1,8C24.29,12,22.25,12.49,20.63,13.44Z"/><path d="M57.32,46.84c.09-1.3.22-2.76.27-4.22s0-2.94,0-4.45c.2-.1.6-.43.73-.34,8.74,5.63,18.33,5.75,28.21,4.63,1.54-.18,3.25,1.14,4.88,1.76-1.42.85-2.74,2.05-4.28,2.47C77.32,49.37,67.45,51.61,57.32,46.84Z"/><path d="M49.23,31.39a7.73,7.73,0,0,1-7-7.69A7.33,7.33,0,0,1,50,16.36a7.41,7.41,0,0,1,6.75,7.82C56.47,28.2,53,31.53,49.23,31.39Z"/></g></g></svg>