<svg xmlns="http://www.w3.org/2000/svg" viewBox="0 0 98.33 99.98"><title>hockey</title><g id="Ebene_2" data-name="Ebene 2"><g id="Ebene_1-2" data-name="Ebene 1"><path d="M59.35,59.26C53.13,64.05,49.11,69.14,47,76a223.44,223.44,0,0,1-8.54,21.26C37.9,98.43,36.15,99.08,35,100c-.44-1.43-1.53-3-1.22-4.26C36.41,85.08,38.16,74,42.52,64.08c3.86-8.8,10.55-16.4,16.37-24.25.93-1.25,4.47-2,5.75-1.22a9.72,9.72,0,0,1,4.31,6A103,103,0,0,1,69.69,60c0,3,1.12,3.93,4.08,4.2C80.88,64.86,88,65.86,95,67c1.21.19,2.2,1.77,3.3,2.71-1.15.71-2.29,2-3.46,2-9.48.36-19,.69-28.44.51-1.69,0-4-2.15-4.84-3.88C60.33,65.78,60.12,62.67,59.35,59.26Z"/><path d="M58.84,27c-3.66-2.27-7-4.16-10.06-6.29-3.68-2.51-4.59-6.11-2.51-8.89s5.58-2.65,9.07.69,6.47,6.7,9.63,10.12c2.2,2.38,2.13,4.57-.42,6.84C45.74,46.17,27,63,8.13,79.55c-1.35,1.19-3.93,1.58-5.8,1.33-1-.13-2.4-2.5-2.33-3.79.09-1.5,1.6-2.92,2.49-4.37l1.51.7c-.14,1.44-.28,2.88-.49,5a25.34,25.34,0,0,0,3.43-2.06c3.94-3.33,7.53-7.15,11.75-10.05,10.23-7,16.74-16.35,18.75-28.6.76-4.67,1-9.43,1.47-14.78,1.6,4.38,8.09,5.68,5.87,11.64-1.55,4.16-3.45,8.18-4.28,13Z"/><path d="M45,7.25a7.06,7.06,0,0,1-7.17,6.83,6.86,6.86,0,0,1-6.33-7.57C31.91,2.57,34,0,38.27,0,42,0,45.11,3.47,45,7.25Z"/><path d="M10.26,98.46c-1.6-2-3.29-3.26-3.19-4.33s1.7-2.62,2.95-3c.65-.21,2.69,1.59,2.75,2.55C12.84,94.89,11.53,96.2,10.26,98.46Z"/></g></g></svg>