<svg xmlns="http://www.w3.org/2000/svg" viewBox="0 0 86.21 107.61"><title>judo</title><g id="Ebene_2" data-name="Ebene 2"><g id="Ebene_1-2" data-name="Ebene 1"><path d="M27,73.55c1.06,3.34,1.66,5.24,2.25,7.14l-1.35.85c-1.68-1.83-3.69-3.46-5-5.54-3.54-5.69-8.61-8.08-15.15-8.82C-.28,66.26-1.81,62.83,2,55.62,5.41,49,9,42.5,12.79,35.38c3.5,3.15,6.76,5.91,9.75,8.92.73.73.68,2.29.84,3.49a2.68,2.68,0,0,1-.46,1.41c-3.91,7.62-3,14.34,4.52,20,4.87-3.43,9.58-7.49,12.4-13.91C45.13,43.24,46,43.2,57.12,50.53l10.77,7.12c-3.58,2.61-6.67,5.42-10.27,7.24-1.58.8-4.37,0-6.3-.84-3-1.27-4.83-.95-7.28,1.59a46.83,46.83,0,0,1-10.85,7.77C31.71,74.25,29.35,73.55,27,73.55Z"/><path d="M76.69,63.51c.2,3.92-.16,6.68.58,9.11C79.36,79.44,82,86.08,84.2,92.88c.88,2.77,4.07,5.67-.07,8.76-.65.49.44,3.31.77,5.38H76.22c-.06-.26-.12-.52-.17-.78l4.53-2L67.81,79.54c-9.43,4.16-18.63,7.79-21.18,19.18-.37,1.66-2.57,2.91-4.52,3.89C38,108,37.2,108.35,29,106.81c.17-.44.31-1.24.47-1.24,6.61-.22,8.45-4.76,9.08-10.17,1.26-10.81,6.53-18.71,16.19-23.92,3.78-2,7-5,10.57-7.51C71.76,59.35,71.76,59.36,76.69,63.51Z"/><path d="M18.72,26.75c1.83-.62,3.86-.92,5.46-1.92A20.15,20.15,0,0,0,33.8,11c.56-3,4.37-4.77,4.93-6.24C40.94-1,45.16.8,48.91,0A10.78,10.78,0,0,1,49,1.3c-6,1.34-6.64,6-7.53,11-1,5.82-3.07,11.46-4.8,17.66,7.51,1.39,11.61-6.83,18.45-8.43,1.83-.25,3.79-.18,5.48-.82,5.27-2,6.82,2.89,10.68,4.53-1,.57-1.15.76-1.21.72-6.71-4-10.83.3-14.44,4.89-6.57,8.36-15.49,11.45-25.57,12.07a9.71,9.71,0,0,1-5.29-1.64c-1.94-1.22-3.35-3.27-5.26-4.54C14.9,33.68,13.74,30.28,18.72,26.75Z"/><path d="M25.14,52.25a6,6,0,0,1,6.34-6.19c3.93.13,5.63,2.64,6,6.11.33,3.31-2.92,6.64-6.13,6.71S25.13,55.74,25.14,52.25Z"/><path d="M17.67,77.44c-.06,3.37-3.23,6.56-6.38,6.44A6.41,6.41,0,0,1,5.44,77c.29-3.61,2.2-5.88,6-6A6.13,6.13,0,0,1,17.67,77.44Z"/></g></g></svg>