<svg xmlns="http://www.w3.org/2000/svg" viewBox="0 0 120.92 63.4"><title>lutte</title><g id="Ebene_2" data-name="Ebene 2"><g id="Ebene_1-2" data-name="Ebene 1"><path d="M30.56,62.1c.89-5.16,1.14-10.54,2.82-15.42,2.35-6.81,1.12-11.84-5.6-15.87L1.88,63.4,0,62.3c.39-1.56.46-3.3,1.22-4.64C8.28,45.22,15.36,32.81,22.63,20.5c3.27-5.52,7.16-5.38,10.53,0C42.74,35.88,42.74,35.88,37,53.29c-.73,2.21-1.27,4.49-2.16,6.63a14.88,14.88,0,0,1-2.28,3Z"/><path d="M93.09,32.69c-5.34,3-8.6,6.57-8.9,12.66-.24,4.94-1.46,9.86-2.44,14.75-.18.91-1.27,1.65-1.94,2.47-.6-1-1.74-2-1.72-2.93.2-7.48.49-15,1.07-22.44a9,9,0,0,1,2.3-4.83c3.3-3.74,6.74-7.38,10.38-10.79,4.1-3.83,8.21-2.47,9.4,3.08a41.47,41.47,0,0,1,1.2,9.88c-.14,4.43,1.9,7.34,4.86,10.26,4.51,4.43,8.69,9.19,12.85,14,.68.77.53,2.26.77,3.41-1.17-.2-2.66,0-3.46-.67-6.44-5.27-12.87-10.57-19-16.17-1.59-1.44-2.28-4-3.16-6.07S93.83,35,93.09,32.69Z"/><path d="M50.43,30.88a93.48,93.48,0,0,0,10.64,1.7c1.23.07,2.88-1.34,3.77-2.5,4.85-6.31,9.52-12.76,14.24-19.16.79-1.07,1.52-2.18,2.33-3.24,1.77-2.32,4.4-3.39,6.26-1.07C88.78,8,89,11.84,87.88,13c-7.41,7.6-14.5,16-23.28,21.6-4.59,2.93-12.42.81-18.78.93a1,1,0,0,1-.71-.61C44.58,28,44,21.2,43.79,14.36c0-.52,3-1.9,4.09-1.49a5.39,5.39,0,0,1,3,3.8C51.12,21.26,50.66,25.88,50.43,30.88Z"/><path d="M78.89,7.06c-2.16,1.49-4.19,4-6.5,4.25C69,11.77,67.06,9,67.11,5.55s2.26-6,5.57-5.47c2.29.4,4.2,3,6.27,4.6Z"/><path d="M57.73,23.61c-1.38-2.22-3.61-4.32-3.95-6.68-.47-3.3,1.83-5.67,5.42-5.58S65,14,64.52,17.15c-.38,2.34-2.82,4.34-4.35,6.5Z"/></g></g></svg>