<svg xmlns="http://www.w3.org/2000/svg" viewBox="0 0 121.65 36.7"><title>natationdenise</title><g id="Ebene_2" data-name="Ebene 2"><g id="Ebene_1-2" data-name="Ebene 1"><path d="M0,32.9C8.62,30,17.12,26.58,25.89,24.22s17.53-3.63,26.8-5.48c-1.22-2.55-2.47-5.18-3.92-8.2L29,17.7c-1.56.57-3.12,1.5-4.7,1.53a4.62,4.62,0,0,1-3.48-1.82c-.4-.63.37-2.84,1.19-3.28,9.1-4.84,18.24-9.63,27.59-14,1.27-.6,4.3.72,5.46,2.06,4.35,5,8.25,10.43,12.32,15.69,3.2,4.14,3.9,8.28.42,12.72-3.7,4.73-9.43,7.27-14.46,5.16-3.55-1.5-6.52-.15-9.77-.11-7.79.09-15.62.26-23.39,0-3.28-.13-6.19-1.16-9.77,0-3.1,1-6.89-.1-10.38-.27Z"/><path d="M91.42,26.61c.08,5.5-3.9,9.83-9,9.82-4.84,0-9-4.25-9.1-9.39a9.18,9.18,0,0,1,9.14-9.69C87.56,17.36,91.34,21.26,91.42,26.61Z"/><path d="M121.65,32.19c-5.07,4.32-9.53,4.94-14.7,3.34-2.07-.64-4.53-.2-6.79,0s-4.78.71-7.79,1.18l3.69-10.76Z"/></g></g></svg>