<svg xmlns="http://www.w3.org/2000/svg" viewBox="0 0 117.1 127.83"><title>penthatlon</title><g id="Ebene_2" data-name="Ebene 2"><g id="Ebene_1-2" data-name="Ebene 1"><path d="M66.08,82.51c-5.64,2.43-10.95,4.64-16.19,7-8.82,3.94-17.94,5.23-27.2,2.28-3.77-1.2-7.12-3.74-11.89-6.34L28.89,77c-7.08-8.64-7.18-10-.85-14.53l7.79,11.58,9.05-5-.52-1.58a74.46,74.46,0,0,1-8.58-1.73c-1.3-.41-3.4-2.41-3.22-2.79a91.57,91.57,0,0,1,6.51-11.6c.41-.61,3.5-.47,3.89.19a6.49,6.49,0,0,1,.67,4.91c-.62,1.77-2.33,3.16-4,5.27l6.7,3c4.69-7.59,11-12.4,20.1-13,1.28-.09,2.35-3.12,3.94-5.4,2.25,8.24,6.61,15.64,6.8,24.1L75,71.51q-3.67-4.7-7.34-9.4l-2.09.12-7.2,14.7c4.54-.8,7.25-1.32,10-1.76,3.17-.52,4.61,1.08,3.79,4-1.9,6.78-2.77,14.54-13.69,15.32,1.59-2.17,2.58-5,4-5.21C66.59,88.5,66.32,86,66.08,82.51Z"/><path d="M107.48,74.19c-7.34-3.47-7.31-3.46-11.15,2.75Q89.76,87.55,83.08,98.08a34.52,34.52,0,0,1-2.87,3.45l-1.3-.7A28,28,0,0,1,80,96.94c4.58-10.34,9.34-20.6,13.8-31,1.88-4.38,4.42-5.4,8.58-3.15,3.5,1.9,7.16,3.53,10.71,5.36,2.38,1.24,3.7,3,1.82,5.61q-6.14,8.49-12.42,16.88c-.33.44-1.08.56-3.22,1.6C101.1,84.86,105.2,79.84,107.48,74.19Z"/><path d="M27.76,17.38,56,9.7c-.38-.95-.91-2.28-1.62-4L39.64,10.83c-.26-.41-.53-.82-.8-1.23.53-.82.87-2,1.62-2.41C44.68,4.87,49,2.73,53.3.53c.44-.22,1.2-.65,1.35-.5,3.34,3.21,7,6.22,9.72,9.88,1.13,1.5,1.23,4.94.26,6.61-1.91,3.29-5.18,3.6-9.15,2.76s-8.29,0-12.46.07c-4.94,0-9.87,0-14.8,0C28.07,18.71,27.91,18,27.76,17.38Z"/><path d="M104.05,106.72c-2.15,1.06-4.33,2-6.44,3.17-9.83,5.27-19.77,10.35-29.4,16-3.86,2.25-7.24,2.6-11.21.92-3-1.29-6.27-2.16-9.37-3.33s-5.12-3.33-3.39-6.88c1.66-3.4,4.29-3.1,7.07-1.32a13.33,13.33,0,0,1,2.1,1.33c8.41,7.83,16.38,5.68,24.15-1,7.56.72,13-4.61,19.42-7,2.25-.82,4.36-2,6.53-3Z"/><path d="M9,67.71c-1.18-1.16-2.43-1.94-3-3.06C4,60.82,2.16,56.92.5,52.94a6,6,0,0,1-.21-4.2A62.73,62.73,0,0,1,5.84,38.19c.82-1.19,3.26-1.25,5-1.82.5,1.86,1,3.73,1.49,5.6a.55.55,0,0,1-.22.43C4,48.73,5.93,56.26,9.41,64a6,6,0,0,1,.43,1.93C9.87,66.2,9.59,66.5,9,67.71Z"/><path d="M60.58,32.8c-1.68.09-3.36.27-5,.26-3.34,0-6.68-.37-8.74,3.24-.39.69-1.68,1.09-2.61,1.23-7.69,1.11-15.4,2.14-23.37,3.22L19,34.67c7.4,0,14.34.06,21.28,0,1.58,0,3.76-.06,4.62-1,4.72-5.26,10.33-2,15.49-2.79Z"/><path d="M88.88,65.33c-5-8.81.71-22.56,9.82-24.47a4.48,4.48,0,0,1,3.64,1.56c.56.72,0,2.4-.28,3.58a2.22,2.22,0,0,1-1.51,1.18C92,48.66,90.45,54.89,90.17,62.1,90.13,63.07,89.43,64,88.88,65.33Z"/><path d="M38.55,99.49c-1.6,4.51-3.21,9-5,13.91l5.85.54-2.28,6.49c-12.24-.7-12.47-1.06-6.87-11.21,2-3.55,4-7,6-10.57Z"/><path d="M67.21,13.3C69.14,12,71,9.86,73,9.65a4,4,0,0,1,4.48,5.11c-.58,2-3.06,4.55-4.93,4.77C71,19.72,69,17,67.13,15.6Z"/><path d="M109.18,52,116,44.35l1.1.63a8.44,8.44,0,0,1-.57,2.84c-2.15,3.34-4.37,6.64-6.79,9.79-.65.84-2.09,1.08-3.17,1.6-.47-1.13-1.38-2.29-1.31-3.39a72.29,72.29,0,0,1,1.32-8Z"/><path d="M21.43,28.28c-3.05,2.26-4.9,4.69-6.52,4.54s-4.67-3-4.47-4.24a7.49,7.49,0,0,1,4.47-5.08C16.18,23.15,18.33,25.88,21.43,28.28Z"/><path d="M107.12,30.05c1.23,1.8,3.44,3.63,3.38,5.37s-2.54,3.19-4,4.77c-1.65-1.48-4.34-2.78-4.64-4.5S103.85,32,105,30.14Z"/><path d="M49.7,52.64,44.39,45.2c1-.81,3-3.57,4.1-3.26,2.37.66,4.28,3,6.37,4.59l-.76,1.19L49.38,48C49.49,49.6,49.59,51.07,49.7,52.64Z"/><path d="M80.54,14.26l12.55,3.08,0,1.72-14.24.63C79.4,18,79.9,16.34,80.54,14.26Z"/><path d="M50.62,111.4V100.94l1.31-.63c1,1.72,2.72,3.44,2.72,5.16,0,2.19-1.38,4.39-2.17,6.59Z"/><path d="M47.76,110.92c-4.11.36-3.89-2.5-3.65-5.14.2-2.24-1.4-5.77,3.65-5.37Z"/></g></g></svg>