<svg xmlns="http://www.w3.org/2000/svg" viewBox="0 0 91.3 92.18"><title>rugby</title><g id="Ebene_2" data-name="Ebene 2"><g id="Ebene_1-2" data-name="Ebene 1"><path d="M52,60.35c-8-5.12-8-5.11-14.78,1C26.36,71.22,15.54,81.07,4.58,90.77c-1.09,1-3,1-4.58,1.41.29-1.49.11-3.36.94-4.42Q18.85,65,37,42.53c3-3.67,6.72-4.26,10.54-1.33,5.66,4.36,11.27,8.8,16.72,13.43,3.1,2.63,3.25,6,0,8.54-9.4,7.41-19,14.61-28.61,21.7-1,.69-2.88,0-4.35,0,.33-1.45.18-3.36,1.06-4.3C38.75,73.81,45.3,67.22,52,60.35Z"/><path d="M77.9,39.25c-5.58.92-10.83,1.76-16.07,2.67-3.55.62-5.68-.57-6.57-4.25-1.17-4.84-2.82-9.57-4-14.42-1.07-4.45,1.06-7.8,4.84-8.26s6.43,2.14,6.61,6.86c.12,3,.18,6,0,9-.18,3.32,1.46,3.58,2.93,2.27l6-13.5c1.07,4.79,1.75,8.27,2.66,11.68.24.92,1.18,1.66,1.8,2.48.67-.81,1.37-1.6,2-2.45.18-.24,0-.73.24-.95,1.94-2.29,3.93-4.56,5.9-6.83,2.23,2.28,5.7,4.23,6.39,6.9a21.91,21.91,0,0,1-.5,12.06c-2,5.83-6.32,6-9.88.95C79.45,42.23,78.82,40.87,77.9,39.25Z"/><path d="M68.91,0a7.76,7.76,0,0,1,7.38,7.8c0,4.36-3.64,8.13-7.75,8S61.13,12,61.33,7.43C61.52,3,64.72-.12,68.91,0Z"/></g></g></svg>