<svg xmlns="http://www.w3.org/2000/svg" viewBox="0 0 97.52 89.93"><title>taekwondo</title><g id="Ebene_2" data-name="Ebene 2"><g id="Ebene_1-2" data-name="Ebene 1"><path d="M45.06,25.83c2.43,1.34,5,2.5,7.27,4.05,4.23,2.84,8.75,5.46,12.33,9,4.74,4.67,8.69,9.56,8.39,17.5-.28,7.65,2.34,15.39,3.53,23.11.54,3.48,1.27,6.44,5.62,6.81,1.06.08,2,1.21,2.77,2.55-3.82-.32-8.72,4.08-10.78-2.86-9.67-5.78-9.31-16.71-11.82-25.52C58.5,46.87,47.66,41.15,37.49,32.8,35,46.61,24.92,39.87,17.16,42.07A45.29,45.29,0,0,1,18.41,37c1-2.53,1.11-4.38-1.48-6.41-3.66-2.86-3.3-6.09.47-9,2.49-1.94,5.13-3.68,8-5.68-.54-1.46-1.09-3-2-5.34,1.67.45,3.31.4,3.73,1.1,2.36,3.85,6,3.58,9.69,3.5,8.48-.17,17-.36,25.45-.36A7.86,7.86,0,0,1,66,16.35c.28.17.06,2-.32,2.17a7.84,7.84,0,0,1-4,.82c-2.68-.43-5.39-1.73-5.65,2.8,0,.51-1.84,1.12-2.9,1.34-2.59.52-5.22.84-7.83,1.24Z"/><path d="M39.31,84.35,45.05,88c-.17.41-.34.83-.5,1.24H34.15c.22-2,.43-3.9.68-6.15-3.51-.91-3.94-3.26-2.47-6.31.07-.14,0-.33.1-.48,4.12-8.78-.52-14.19-7.51-19L5,83,9,88.57,8,89.7.22,86.37C-1.55,73.29,7.87,64.79,12,54.07L7.5,53c4-3,7-6.4,10.62-7.58s8.25-.5,12.38-.19c1.56.12,3,1.44,4.51,2.29.39.23.54.84.89,1.19,10,9.84,11.8,20.76,4.34,32.92A13.14,13.14,0,0,0,39.31,84.35Z"/><path d="M78.53,18.1c4.59,3.46,8.61,6.4,12.53,9.46,2.84,2.22,5.54,14.64,3.75,17.61-1.67,2.8-4.28,2.93-6.14.57-2.91-3.68-5.92-3.64-9.43-1.32-2.79,1.85-4.67,1.06-6.56-1.56-2.43-3.35-5.29-6.4-8.13-9.78l6.91-8c-.88-2.73-3-5.85-2.15-7.33,2-3.5,5.24-8.58,8.16-8.69,4.14-.17,5.12-2.81,7.52-4.35.79-.51,2.28.07,3.45.15-.35,1.39-.33,3.05-1.12,4.1-.94,1.24-2.76,1.78-3.86,3C81.78,13.66,80.39,15.71,78.53,18.1Z"/><path d="M97.52,16.78c-.12,4-3.18,7.12-6.42,6.68-3.92-.53-5.84-3.07-5.63-6.94.2-3.71,2.3-5.85,6.11-5.8C95.78,10.78,97.27,13.5,97.52,16.78Z"/><path d="M35.21,12.81A6.11,6.11,0,0,1,29.46,6c.34-3.59,2.25-5.89,6-6,3.39-.12,6.1,2.93,6,6.54A6.12,6.12,0,0,1,35.21,12.81Z"/></g></g></svg>