<svg xmlns="http://www.w3.org/2000/svg" viewBox="0 0 121.75 69.04"><title>tennistable</title><g id="Ebene_2" data-name="Ebene 2"><g id="Ebene_1-2" data-name="Ebene 1"><path d="M26.45,31.83c7.06,0,13.73-.45,20.3.13a28,28,0,0,0,16.66-3.45c3-1.67,6.27-2.85,9.51-4.29,1.51,4.05,2.87,7.71,4.17,11.22-16.71,9.46-33.58,5.05-50.59.9C21.9,41.6,17.65,43,13,40.68a8,8,0,0,1-4.62-8.61c.55-4.26,3.11-6.88,7.52-7.36C20.83,24.17,24.11,26.41,26.45,31.83Z"/><path d="M108.85,33c-5.65-1.13-11-2.11-16.31-3.29s-7.72-5.06-6.43-9.84c1.19-4.42,5.39-6.36,10.35-4.5q10.5,3.93,20.85,8.25c4.73,2,5.63,4.65,2.93,9.05Q112.7,45,104.67,57c-.79,1.18-2.89,1.47-4.38,2.17-.35-1.73-1.49-3.78-.93-5.14C102.25,47,105.57,40.19,108.85,33Z"/><path d="M.53,64.81H110.9C112,69,112,69,107,69H16.53c-4.33,0-8.67-.13-13,0C.31,69.14-.75,68,.53,64.81Z"/><path d="M83.93,9.9a9.27,9.27,0,1,1-18.51-.21C65.51,4.4,69.87-.1,74.8,0S84,4.67,83.93,9.9Z"/></g></g></svg>