<svg xmlns="http://www.w3.org/2000/svg" viewBox="0 0 95.33 108.72"><title>tennis</title><g id="Ebene_2" data-name="Ebene 2"><g id="Ebene_1-2" data-name="Ebene 1"><path d="M59.13,72.67a7.31,7.31,0,0,0-.81,1.69C56.22,92,41.43,98.75,29.56,108c-.83.64-2.59.09-3.92.09.32-1.35.19-3.09,1-4,5.22-5.59,10.77-10.88,15.94-16.53a13.86,13.86,0,0,0,3.15-6.34c1.2-6,1.79-12.17,2.86-18.22,1.27-7.22,5.78-9.46,11.76-5.47C67.13,62.05,73.54,67.12,80,72a7.66,7.66,0,0,1,2.45,3.08c3.93,9.71,7.82,19.43,11.48,29.25.44,1.18-.53,2.89-.85,4.35-1.43-.8-3.47-1.25-4.19-2.48C85,99.66,81.23,93,77.89,86.13a16.34,16.34,0,0,0-9-8.63C65.71,76.2,62.67,74.44,59.13,72.67Z"/><path d="M91.47,41.36,87.05,29.67c-3.29,2.65-6.18,4.78-8.84,7.17-2.85,2.57-5.37,3-8-.25-1.62-2.05-3.42-4-5.6-6.44,7.31,4.19,13.15,2.05,18.48-3.56a16.83,16.83,0,0,1-2.9-2.51C78,21,75.29,18.13,74,14.7c-2.53-6.5,0-12.8,5-14.37,4.5-1.43,9.54,1.9,11.75,8.38,1,2.9,2,6.43,1.21,9.19-2.19,7.89-1,15.15,2.51,22.19,2.13,4.29.56,6.1-3.68,6.69a9.42,9.42,0,0,0-2.43.54C75.48,53,64.83,48.2,54.74,40.5c-3.36-2.58-4.32-6.22-2-9,2.79-3.25,5.77-2.6,8.65,0a14.21,14.21,0,0,1,2.21,2C70.52,43.43,80,44.85,91.47,41.36Zm-.17-25c-2.12-4.31-3.57-8.33-6-11.68-1-1.39-4.35-2.27-6-1.67s-3.83,3.48-3.62,5.08A32.66,32.66,0,0,0,79.46,20c1.12,1.95,5,4,6.75,3.44C88.29,22.74,89.41,19.22,91.3,16.39Z"/><path d="M61,25.94c-3.77-.1-6.6-3.28-6.53-7.32s2.88-6.94,6.89-6.86S68,14.86,67.92,19A7,7,0,0,1,61,25.94Z"/><path d="M8.61,67.88c-2.67,1.78-4.13,3.52-5.48,3.44C1.94,71.24-.13,69,0,68A5.26,5.26,0,0,1,3.3,64.23C4.45,64,6,66,8.61,67.88Z"/></g></g></svg>