<svg xmlns="http://www.w3.org/2000/svg" viewBox="0 0 109.02 53.75"><title>tire</title><g id="Ebene_2" data-name="Ebene 2"><g id="Ebene_1-2" data-name="Ebene 1"><path d="M41.53,43.14c4.17-3.58,4.25-9.16,11.18-10,3.66-.48,6.62-6.45,10.4-10.48-7-1.14-11.81,1.2-15.38,6.31q-7.56,10.85-15,21.76c-2.33,3.41-5.23,4-8.55,1.71-6.74-4.58-13.54-9.1-20.06-14-5.26-3.93-5.45-10.65-.57-14C5.05,23.42,7.8,22.33,9,23c8.16,4.58,16.27.44,24.34.27,6.66-.15,12.84-2.36,19.12-4.89,5.85-2.35,12.61-2.58,19-3.35,11.23-1.35,22.5-2.46,33.77-3.52,1.2-.11,2.5.74,3.76,1.14-1.15.84-2.23,2.29-3.47,2.44C95.32,16.37,85,17.27,74.8,18.61A7.62,7.62,0,0,0,70,21.78a173.53,173.53,0,0,0-9.58,17.49c-2.16,4.69-5.38,5.86-10,5C47.78,43.84,45.17,43.61,41.53,43.14Zm-19-8.3,4.22,4.73,9.4-7.46c-.19-.27-.38-.55-.56-.83Z"/><path d="M27.51,20.68c-5.51-.07-9.74-4.63-9.66-10.42S22.43-.12,27.78,0s9.84,5,9.78,10.55A10.16,10.16,0,0,1,27.51,20.68Z"/></g></g></svg>