<svg xmlns="http://www.w3.org/2000/svg" viewBox="0 0 81.46 113.48"><title>volleyball</title><g id="Ebene_2" data-name="Ebene 2"><g id="Ebene_1-2" data-name="Ebene 1"><path d="M42,88.59c-1.12,1-1.78,1.49-2.33,2.07-9.06,9.58-6.76,8.38-17.69,3-5.81-2.87-11.59-5.82-17.16-9.13C2.82,83.34,1.57,81,0,79.22c2.25,0,4.67-.43,6.73.22Q16.48,82.5,26,86.32c2.72,1.09,4.15.54,5.78-1.74C35.62,79.18,39.8,74,43.8,68.69,46,65.76,49.22,64.41,52,66.38c2,1.42,4,4.9,3.74,7.23-.93,9.24-2.56,18.43-4.38,27.55-.32,1.61-2.56,3.59-4.28,4-11.06,3-22.21,5.66-33.38,8.23-1.24.28-2.79-.8-4.19-1.24.83-1.35,1.37-3.43,2.56-3.92,8-3.28,16.11-6.22,24.2-9.26C42.56,96.67,42.57,96.69,42,88.59Z"/><path d="M27.19,46.19C31.7,44.43,35,43,38.48,41.8c3.86-1.32,7.32.48,8.21,4,1,3.8-.85,7.27-4.72,8-6.53,1.2-13.11,2.14-19.7,2.89-3.36.38-5.43-1.85-4.31-4.93,2.95-8.1,6.41-16,9.82-23.94.34-.79,1.71-1.14,2.61-1.69.38,1.12,1.3,2.37,1.07,3.36C30.28,34.77,28.81,40,27.19,46.19Z"/><path d="M55.87,44.92l-5.81-7.47c9.45-7.05,18.86-14.12,28.35-21.07.74-.54,2-.34,3-.48-.12,1.16.22,2.8-.42,3.4-8.72,8.16-17.58,16.17-26.4,24.22Z"/><path d="M48.5,30.64a7.11,7.11,0,0,1-6.71,7.24,7,7,0,0,1-7.13-7.27c0-3.87,3.06-7.26,6.62-7.39C45,23.08,48.48,26.67,48.5,30.64Z"/><path d="M75.75,7.1a7,7,0,0,1-7,7.4,7.37,7.37,0,0,1-6.82-7.21A7.16,7.16,0,0,1,68.58,0C72.72-.16,75.7,2.79,75.75,7.1Z"/></g></g></svg>