<svg xmlns="http://www.w3.org/2000/svg" viewBox="0 0 84.51 116.4"><title>vtt</title><g id="Ebene_2" data-name="Ebene 2"><g id="Ebene_1-2" data-name="Ebene 1"><path d="M31.16,56C35.83,66.71,29.88,75.75,29,85.27c-.27,3-.7,6.26.15,9,2.4,7.73.14,15.75-6.25,19.82a14.55,14.55,0,0,1-18.63-2.56A16.46,16.46,0,0,1,2.8,91.29c4.29-6.4,11.45-8.22,19.37-4.91.3.12.64.18,1.72.47.83-7.25,1.77-14.39,2.36-21.56.11-1.25-1.17-2.67-1.94-3.93C21.22,56.24,18,51.2,15,46.05c-2.05-3.46-1.63-6.82,1.49-9.4s6.19-1.64,9,.77c5.56,4.76,11.2,9.42,16.6,14.35a8.91,8.91,0,0,1,2.69,5c1.18,9.05,2.1,18.14,2.89,27.24.12,1.28-1,2.67-1.55,4-.88-1.19-2.23-2.26-2.57-3.59C41.81,77.66,40.33,70.85,38.84,64,37.61,58.43,37.66,58.42,31.16,56Zm-3.94,44.74c.12-6.84-5.29-12.86-11.71-13-6.65-.18-12.6,5.8-12.63,12.72,0,6.71,5.58,12.63,12.08,12.74S27.1,107.63,27.22,100.74Z"/><path d="M52.1,41.51,63.59,64.4c9.89-1.85,17.27,1.35,20.21,10.9A15.84,15.84,0,0,1,76.07,94a14.51,14.51,0,0,1-18-3.73c-5.68-6.83-4.78-15,2.81-24.39-3-6-6-12.12-9-18.22-.28-.57-.65-1.11-1-1.66-.24.42-.49.83-.74,1.24-2.43-1.05-5.26-1.61-7.22-3.23-13-10.74-13-11.28-9.2-27.79.75-3.22,2.46-5.31,5.91-4.45s4.13,3.56,3.17,6.7a73.11,73.11,0,0,1-3.36,9.91C38.05,31.16,38.63,33,40.66,35a25.89,25.89,0,0,1,3.55,4.19C46.11,42,48.18,44.1,52.1,41.51ZM62.44,69.85c-5.83,4.87-6.79,12-2.53,17.68C64,93,70.71,94.09,76.2,90.23A13.06,13.06,0,0,0,79.52,72.9c-3.12-5.16-8.92-7-13.75-4.44q2.57,6,5.12,12.09l-2,.92C66.78,77.61,64.62,73.75,62.44,69.85Z"/><path d="M61.4,11.46,56.58,9.22c-1.1,4.06-2.11,7.76-3.45,12.71-3.39-4.3-6.67-7.3-8.36-11-1-2.3-.5-6.22.87-8.48,1.81-3,5.56-3.14,8.33-.84,3.11,2.6,5.73,5.78,8.56,8.71Z"/></g></g></svg>