<svg xmlns="http://www.w3.org/2000/svg" viewBox="0 0 82.33 75.91"><title>waterpolo_1</title><g id="Ebene_2" data-name="Ebene 2"><g id="Ebene_1-2" data-name="Ebene 1"><path d="M23.18,51.12C21.51,56.32,20.1,60.67,18.4,66,13,59.11,7.62,52.52,2.53,45.72c-.87-1.16-.76-3.17-.86-4.8C1.09,30.64.6,20.37,0,10.09-.25,5.4,3.4.73,8,.09c4.82-.67,9,2.41,10.19,7.48,1.07,4.66-1.71,9.78-6.17,11.13a38.62,38.62,0,0,1-4.71.79c1,6.94,1.75,13.67,2.9,20.34C10.38,41,11.91,42.11,13,43,16.47,45.87,20,48.61,23.18,51.12Z"/><path d="M82.33,72.58C77,76.21,72.85,76.5,68.27,75.19c-1.87-.53-4-.18-6-.17-.48,0-1,.47-1.42.43-7.9-.57-15.83.4-23.67-.11C32,75,29,69.62,30.06,65.11c1.12-4.72,5.42-7.14,11-5.46C54.45,63.64,67.69,68,82.33,72.58Z"/><path d="M44.36,41.41A10.32,10.32,0,0,1,34.09,52c-5.56,0-10.18-4.89-10.18-10.74s4.81-10.69,10.31-10.66S44.4,35.55,44.36,41.41Z"/></g></g></svg>