<svg xmlns="http://www.w3.org/2000/svg" viewBox="0 0 101.97 95.01"><title>waterpolo</title><g id="Ebene_2" data-name="Ebene 2"><g id="Ebene_1-2" data-name="Ebene 1"><path d="M102,76.87c-1.32,10.13-11.58,16.37-22.79,14-2.83-.6-4.77-.63-7.14,1.39-4,3.44-8.69,3.45-13.59,1.33a7.77,7.77,0,0,0-5.65-.1,14.05,14.05,0,0,1-12.47-.11c-1.47-.66-3.5-.09-5.28-.07-.15,0-.29.16-.43.24-5.21,2.86-9.89-.81-14.59-1s-9.39,3.85-14.58,1.06A56.32,56.32,0,0,1,0,89.6l77.61-9.85L71.8,69.9c-3.79,2-7.46,3.62-10.7,5.84-3.66,2.5-6.94,2.45-10.61.26-2.53-1.52-5.29-2.65-8.11-4,1-3.13,1.84-5.9,3.06-9.85,6.88,9.13,14.59,11.46,23.9,4l-21-33.54C44.57,35.31,41,37.45,38,40.22c-1.37,1.25-1.9,3.68-2.29,5.67-.63,3.26-.78,6.6-1.22,9.89-.48,3.5-2.49,5.74-6.07,5-3.8-.81-4.93-3.93-3.81-7.38,3.08-9.49,5.84-19.32,17.44-22.2,1.24-.3,2.34-1.16,4.18-2.11-1.58-2.15-2.58-4.86-4.47-5.85-5.76-3-8.17-8.54-11.48-13.46-2.86-4.25-1.34-7,3.59-9.76,3.23,5.89,6.48,11.57,9.49,17.38,1.59,3.06,2.37,6.57,4.16,9.49C57.1,42.44,67,57.85,76.56,73.42c2.66,4.33,5.71,6.36,11.06,5.11C92.24,77.45,97.1,77.39,102,76.87Z"/><path d="M44.83,59.25a6.51,6.51,0,0,1-6.56-6.64,6.47,6.47,0,1,1,12.93-.23A6.69,6.69,0,0,1,44.83,59.25Z"/><path d="M12.44,26.32V71.14H11.22V26.33Z"/><ellipse cx="70.18" cy="25.17" rx="0.68" ry="30.71"/></g></g></svg>